<svg xmlns="http://www.w3.org/2000/svg" xmlns:xlink="http://www.w3.org/1999/xlink" width="500" zoomAndPan="magnify" viewBox="0 0 375 374.999991" height="500" preserveAspectRatio="xMidYMid meet" version="1.0"><defs><g/><clipPath id="88badae4ee"><path d="M 119.882812 102.539062 L 254.882812 102.539062 L 254.882812 206.039062 L 119.882812 206.039062 Z M 119.882812 102.539062 " clip-rule="nonzero"/></clipPath><clipPath id="61cdc52a89"><path d="M 254.875 133.5625 L 254.875 200.285156 L 220.78125 200.285156 C 220.03125 200.304688 219.167969 200.324219 218.285156 200.324219 C 208.890625 200.441406 203.40625 202.355469 194.9375 206.039062 C 196.332031 203.4375 198.0625 201.210938 200.164062 199.378906 C 202.777344 197.070312 205.902344 195.394531 209.558594 194.371094 C 212.386719 193.582031 215.335938 193.542969 218.207031 193.503906 C 218.992188 193.484375 219.777344 193.484375 220.640625 193.445312 L 248.035156 193.445312 L 248.035156 133.5625 Z M 187.390625 102.539062 C 203.484375 102.539062 216.535156 115.628906 216.535156 131.769531 C 216.535156 140.699219 212.527344 148.703125 206.238281 154.0625 C 202.25 157.433594 200.242188 162.796875 199.734375 167.898438 L 175.03125 167.898438 C 174.519531 162.773438 172.515625 157.453125 168.566406 154.082031 C 162 148.542969 158.226562 140.363281 158.226562 131.769531 C 158.226562 115.628906 171.277344 102.539062 187.390625 102.539062 Z M 193.167969 114.601562 L 177.367188 139.023438 L 186.605469 139.023438 L 181.929688 157.414062 L 197.394531 132.777344 L 188.492188 132.777344 Z M 187.390625 181.816406 L 178.785156 181.816406 C 178.785156 186.585938 182.636719 190.449219 187.390625 190.449219 C 192.128906 190.449219 195.980469 186.585938 195.980469 181.816406 Z M 175.03125 175.84375 L 199.734375 175.84375 L 199.734375 179.824219 L 175.03125 179.824219 Z M 175.03125 169.871094 L 199.734375 169.871094 L 199.734375 173.851562 L 175.03125 173.851562 Z M 185.308594 206.039062 L 185.308594 195.023438 C 179.824219 194.175781 175.460938 189.976562 174.324219 184.574219 L 170.292969 184.574219 L 170.292969 168.136719 C 169.882812 164.371094 168.445312 160.214844 165.5 157.730469 C 157.894531 151.265625 153.492188 141.765625 153.492188 131.769531 C 153.492188 128.539062 153.945312 125.382812 154.789062 122.429688 C 136.179688 121.855469 131.640625 122.449219 131.640625 122.449219 L 131.640625 188.496094 L 153.394531 188.496094 C 153.394531 188.496094 176.152344 185.246094 185.308594 206.039062 Z M 189.472656 206.039062 L 189.472656 195.023438 C 194.9375 194.175781 199.300781 189.976562 200.441406 184.574219 L 204.46875 184.574219 L 204.46875 168.136719 C 204.882812 164.351562 206.335938 160.191406 209.304688 157.691406 C 216.910156 151.226562 221.269531 141.785156 221.269531 131.769531 C 221.269531 128.539062 220.820312 125.382812 219.972656 122.429688 C 238.585938 121.855469 243.125 122.449219 243.125 122.449219 L 243.125 188.496094 L 221.371094 188.496094 C 221.371094 188.496094 198.613281 185.246094 189.472656 206.039062 Z M 119.886719 133.5625 L 119.886719 200.285156 L 153.984375 200.285156 C 154.730469 200.304688 155.59375 200.324219 156.480469 200.324219 C 165.871094 200.441406 171.375 202.355469 179.824219 206.039062 C 178.429688 203.4375 176.699219 201.210938 174.597656 199.378906 C 171.984375 197.070312 168.859375 195.394531 165.203125 194.371094 C 162.375 193.582031 159.425781 193.542969 156.558594 193.503906 C 155.773438 193.484375 154.984375 193.484375 154.121094 193.445312 L 126.726562 193.445312 L 126.726562 133.5625 Z M 119.886719 133.5625 " clip-rule="evenodd"/></clipPath><linearGradient x1="2741.191609" gradientTransform="matrix(0.0196519, 0, 0, 0.0197105, 119.887262, 102.539918)" y1="5841.880827" x2="4127.814997" gradientUnits="userSpaceOnUse" y2="-590.880436" id="25627bee07"><stop stop-opacity="1" stop-color="rgb(36.099243%, 88.198853%, 90.19928%)" offset="0"/><stop stop-opacity="1" stop-color="rgb(36.099243%, 88.198853%, 90.19928%)" offset="0.219954"/><stop stop-opacity="1" stop-color="rgb(36.099243%, 88.198853%, 90.19928%)" offset="0.25"/><stop stop-opacity="1" stop-color="rgb(36.437988%, 87.841797%, 90.19928%)" offset="0.253906"/><stop stop-opacity="1" stop-color="rgb(36.776733%, 87.486267%, 90.19928%)" offset="0.257812"/><stop stop-opacity="1" stop-color="rgb(37.117004%, 87.127686%, 90.19928%)" offset="0.261719"/><stop stop-opacity="1" stop-color="rgb(37.457275%, 86.77063%, 90.19928%)" offset="0.265625"/><stop stop-opacity="1" stop-color="rgb(37.796021%, 86.412048%, 90.19928%)" offset="0.269531"/><stop stop-opacity="1" stop-color="rgb(38.136292%, 86.054993%, 90.19928%)" offset="0.273438"/><stop stop-opacity="1" stop-color="rgb(38.475037%, 85.696411%, 90.19928%)" offset="0.277344"/><stop stop-opacity="1" stop-color="rgb(38.815308%, 85.339355%, 90.19928%)" offset="0.28125"/><stop stop-opacity="1" stop-color="rgb(39.155579%, 84.980774%, 90.19928%)" offset="0.285156"/><stop stop-opacity="1" stop-color="rgb(39.49585%, 84.623718%, 90.19928%)" offset="0.289063"/><stop stop-opacity="1" stop-color="rgb(39.834595%, 84.265137%, 90.19928%)" offset="0.292969"/><stop stop-opacity="1" stop-color="rgb(40.174866%, 83.908081%, 90.19928%)" offset="0.296875"/><stop stop-opacity="1" stop-color="rgb(40.515137%, 83.5495%, 90.19928%)" offset="0.300781"/><stop stop-opacity="1" stop-color="rgb(40.855408%, 83.192444%, 90.19928%)" offset="0.304688"/><stop stop-opacity="1" stop-color="rgb(41.194153%, 82.833862%, 90.19928%)" offset="0.308594"/><stop stop-opacity="1" stop-color="rgb(41.534424%, 82.476807%, 90.19928%)" offset="0.3125"/><stop stop-opacity="1" stop-color="rgb(41.874695%, 82.118225%, 90.19928%)" offset="0.316406"/><stop stop-opacity="1" stop-color="rgb(42.214966%, 81.761169%, 90.19928%)" offset="0.320312"/><stop stop-opacity="1" stop-color="rgb(42.553711%, 81.402588%, 90.19928%)" offset="0.324219"/><stop stop-opacity="1" stop-color="rgb(42.893982%, 81.045532%, 90.19928%)" offset="0.328125"/><stop stop-opacity="1" stop-color="rgb(43.234253%, 80.686951%, 90.19928%)" offset="0.332031"/><stop stop-opacity="1" stop-color="rgb(43.574524%, 80.329895%, 90.19928%)" offset="0.335938"/><stop stop-opacity="1" stop-color="rgb(43.913269%, 79.971313%, 90.19928%)" offset="0.339844"/><stop stop-opacity="1" stop-color="rgb(44.25354%, 79.614258%, 90.19928%)" offset="0.34375"/><stop stop-opacity="1" stop-color="rgb(44.593811%, 79.255676%, 90.19928%)" offset="0.347656"/><stop stop-opacity="1" stop-color="rgb(44.934082%, 78.898621%, 90.19928%)" offset="0.351562"/><stop stop-opacity="1" stop-color="rgb(45.272827%, 78.540039%, 90.19928%)" offset="0.355469"/><stop stop-opacity="1" stop-color="rgb(45.613098%, 78.182983%, 90.19928%)" offset="0.359375"/><stop stop-opacity="1" stop-color="rgb(45.951843%, 77.824402%, 90.19928%)" offset="0.363281"/><stop stop-opacity="1" stop-color="rgb(46.292114%, 77.467346%, 90.19928%)" offset="0.367188"/><stop stop-opacity="1" stop-color="rgb(46.632385%, 77.108765%, 90.19928%)" offset="0.371094"/><stop stop-opacity="1" stop-color="rgb(46.972656%, 76.751709%, 90.19928%)" offset="0.375"/><stop stop-opacity="1" stop-color="rgb(47.311401%, 76.393127%, 90.19928%)" offset="0.378906"/><stop stop-opacity="1" stop-color="rgb(47.651672%, 76.036072%, 90.19928%)" offset="0.382812"/><stop stop-opacity="1" stop-color="rgb(47.991943%, 75.67749%, 90.19928%)" offset="0.386719"/><stop stop-opacity="1" stop-color="rgb(48.332214%, 75.320435%, 90.19928%)" offset="0.390625"/><stop stop-opacity="1" stop-color="rgb(48.670959%, 74.961853%, 90.19928%)" offset="0.394531"/><stop stop-opacity="1" stop-color="rgb(49.01123%, 74.604797%, 90.19928%)" offset="0.398438"/><stop stop-opacity="1" stop-color="rgb(49.351501%, 74.246216%, 90.19928%)" offset="0.402344"/><stop stop-opacity="1" stop-color="rgb(49.691772%, 73.88916%, 90.19928%)" offset="0.40625"/><stop stop-opacity="1" stop-color="rgb(50.030518%, 73.530579%, 90.19928%)" offset="0.410156"/><stop stop-opacity="1" stop-color="rgb(50.370789%, 73.173523%, 90.19928%)" offset="0.414062"/><stop stop-opacity="1" stop-color="rgb(50.71106%, 72.814941%, 90.19928%)" offset="0.417969"/><stop stop-opacity="1" stop-color="rgb(51.051331%, 72.457886%, 90.19928%)" offset="0.421875"/><stop stop-opacity="1" stop-color="rgb(51.390076%, 72.099304%, 90.19928%)" offset="0.425781"/><stop stop-opacity="1" stop-color="rgb(51.730347%, 71.742249%, 90.19928%)" offset="0.429688"/><stop stop-opacity="1" stop-color="rgb(52.070618%, 71.383667%, 90.19928%)" offset="0.433594"/><stop stop-opacity="1" stop-color="rgb(52.410889%, 71.025085%, 90.19928%)" offset="0.4375"/><stop stop-opacity="1" stop-color="rgb(52.749634%, 70.666504%, 90.19928%)" offset="0.441406"/><stop stop-opacity="1" stop-color="rgb(53.089905%, 70.309448%, 90.19928%)" offset="0.445312"/><stop stop-opacity="1" stop-color="rgb(53.42865%, 69.950867%, 90.19928%)" offset="0.449219"/><stop stop-opacity="1" stop-color="rgb(53.768921%, 69.593811%, 90.19928%)" offset="0.453125"/><stop stop-opacity="1" stop-color="rgb(54.109192%, 69.235229%, 90.19928%)" offset="0.457031"/><stop stop-opacity="1" stop-color="rgb(54.449463%, 68.878174%, 90.19928%)" offset="0.460937"/><stop stop-opacity="1" stop-color="rgb(54.788208%, 68.519592%, 90.19928%)" offset="0.464844"/><stop stop-opacity="1" stop-color="rgb(55.128479%, 68.162537%, 90.19928%)" offset="0.46875"/><stop stop-opacity="1" stop-color="rgb(55.46875%, 67.803955%, 90.19928%)" offset="0.472656"/><stop stop-opacity="1" stop-color="rgb(55.809021%, 67.446899%, 90.19928%)" offset="0.476562"/><stop stop-opacity="1" stop-color="rgb(56.147766%, 67.088318%, 90.19928%)" offset="0.480469"/><stop stop-opacity="1" stop-color="rgb(56.488037%, 66.731262%, 90.19928%)" offset="0.484375"/><stop stop-opacity="1" stop-color="rgb(56.828308%, 66.372681%, 90.19928%)" offset="0.488281"/><stop stop-opacity="1" stop-color="rgb(57.168579%, 66.015625%, 90.19928%)" offset="0.492188"/><stop stop-opacity="1" stop-color="rgb(57.507324%, 65.657043%, 90.19928%)" offset="0.496094"/><stop stop-opacity="1" stop-color="rgb(57.847595%, 65.299988%, 90.19928%)" offset="0.5"/><stop stop-opacity="1" stop-color="rgb(58.187866%, 64.941406%, 90.19928%)" offset="0.503906"/><stop stop-opacity="1" stop-color="rgb(58.528137%, 64.584351%, 90.19928%)" offset="0.507812"/><stop stop-opacity="1" stop-color="rgb(58.866882%, 64.225769%, 90.19928%)" offset="0.511719"/><stop stop-opacity="1" stop-color="rgb(59.207153%, 63.868713%, 90.19928%)" offset="0.515625"/><stop stop-opacity="1" stop-color="rgb(59.547424%, 63.510132%, 90.19928%)" offset="0.519531"/><stop stop-opacity="1" stop-color="rgb(59.887695%, 63.153076%, 90.19928%)" offset="0.523438"/><stop stop-opacity="1" stop-color="rgb(60.22644%, 62.794495%, 90.19928%)" offset="0.527344"/><stop stop-opacity="1" stop-color="rgb(60.566711%, 62.437439%, 90.19928%)" offset="0.53125"/><stop stop-opacity="1" stop-color="rgb(60.905457%, 62.078857%, 90.19928%)" offset="0.535156"/><stop stop-opacity="1" stop-color="rgb(61.245728%, 61.721802%, 90.19928%)" offset="0.539062"/><stop stop-opacity="1" stop-color="rgb(61.585999%, 61.36322%, 90.19928%)" offset="0.542969"/><stop stop-opacity="1" stop-color="rgb(61.92627%, 61.006165%, 90.19928%)" offset="0.546875"/><stop stop-opacity="1" stop-color="rgb(62.265015%, 60.647583%, 90.19928%)" offset="0.550781"/><stop stop-opacity="1" stop-color="rgb(62.605286%, 60.290527%, 90.19928%)" offset="0.554688"/><stop stop-opacity="1" stop-color="rgb(62.945557%, 59.931946%, 90.19928%)" offset="0.558594"/><stop stop-opacity="1" stop-color="rgb(63.285828%, 59.57489%, 90.19928%)" offset="0.5625"/><stop stop-opacity="1" stop-color="rgb(63.624573%, 59.216309%, 90.19928%)" offset="0.566406"/><stop stop-opacity="1" stop-color="rgb(63.964844%, 58.859253%, 90.19928%)" offset="0.570313"/><stop stop-opacity="1" stop-color="rgb(64.305115%, 58.500671%, 90.19928%)" offset="0.574219"/><stop stop-opacity="1" stop-color="rgb(64.645386%, 58.143616%, 90.19928%)" offset="0.578125"/><stop stop-opacity="1" stop-color="rgb(64.984131%, 57.785034%, 90.19928%)" offset="0.582031"/><stop stop-opacity="1" stop-color="rgb(65.324402%, 57.427979%, 90.19928%)" offset="0.585938"/><stop stop-opacity="1" stop-color="rgb(65.664673%, 57.069397%, 90.19928%)" offset="0.589844"/><stop stop-opacity="1" stop-color="rgb(66.004944%, 56.712341%, 90.19928%)" offset="0.59375"/><stop stop-opacity="1" stop-color="rgb(66.343689%, 56.35376%, 90.19928%)" offset="0.597656"/><stop stop-opacity="1" stop-color="rgb(66.68396%, 55.996704%, 90.19928%)" offset="0.601562"/><stop stop-opacity="1" stop-color="rgb(67.024231%, 55.638123%, 90.19928%)" offset="0.605469"/><stop stop-opacity="1" stop-color="rgb(67.364502%, 55.281067%, 90.19928%)" offset="0.609375"/><stop stop-opacity="1" stop-color="rgb(67.703247%, 54.922485%, 90.19928%)" offset="0.613281"/><stop stop-opacity="1" stop-color="rgb(68.043518%, 54.56543%, 90.19928%)" offset="0.617188"/><stop stop-opacity="1" stop-color="rgb(68.382263%, 54.206848%, 90.19928%)" offset="0.621094"/><stop stop-opacity="1" stop-color="rgb(68.722534%, 53.849792%, 90.19928%)" offset="0.625"/><stop stop-opacity="1" stop-color="rgb(69.062805%, 53.491211%, 90.19928%)" offset="0.628906"/><stop stop-opacity="1" stop-color="rgb(69.403076%, 53.134155%, 90.19928%)" offset="0.632812"/><stop stop-opacity="1" stop-color="rgb(69.741821%, 52.775574%, 90.19928%)" offset="0.636719"/><stop stop-opacity="1" stop-color="rgb(70.082092%, 52.418518%, 90.19928%)" offset="0.640625"/><stop stop-opacity="1" stop-color="rgb(70.422363%, 52.059937%, 90.19928%)" offset="0.644531"/><stop stop-opacity="1" stop-color="rgb(70.762634%, 51.702881%, 90.19928%)" offset="0.648438"/><stop stop-opacity="1" stop-color="rgb(71.101379%, 51.344299%, 90.19928%)" offset="0.652344"/><stop stop-opacity="1" stop-color="rgb(71.44165%, 50.987244%, 90.19928%)" offset="0.65625"/><stop stop-opacity="1" stop-color="rgb(71.781921%, 50.628662%, 90.19928%)" offset="0.660156"/><stop stop-opacity="1" stop-color="rgb(72.122192%, 50.271606%, 90.19928%)" offset="0.664062"/><stop stop-opacity="1" stop-color="rgb(72.460938%, 49.913025%, 90.19928%)" offset="0.667969"/><stop stop-opacity="1" stop-color="rgb(72.801208%, 49.555969%, 90.19928%)" offset="0.671875"/><stop stop-opacity="1" stop-color="rgb(73.141479%, 49.197388%, 90.19928%)" offset="0.675781"/><stop stop-opacity="1" stop-color="rgb(73.48175%, 48.840332%, 90.19928%)" offset="0.679688"/><stop stop-opacity="1" stop-color="rgb(73.820496%, 48.48175%, 90.19928%)" offset="0.683594"/><stop stop-opacity="1" stop-color="rgb(74.160767%, 48.124695%, 90.19928%)" offset="0.6875"/><stop stop-opacity="1" stop-color="rgb(74.501038%, 47.766113%, 90.19928%)" offset="0.691406"/><stop stop-opacity="1" stop-color="rgb(74.841309%, 47.409058%, 90.19928%)" offset="0.695312"/><stop stop-opacity="1" stop-color="rgb(75.180054%, 47.050476%, 90.19928%)" offset="0.699219"/><stop stop-opacity="1" stop-color="rgb(75.520325%, 46.69342%, 90.19928%)" offset="0.703125"/><stop stop-opacity="1" stop-color="rgb(75.85907%, 46.334839%, 90.19928%)" offset="0.707031"/><stop stop-opacity="1" stop-color="rgb(76.199341%, 45.977783%, 90.19928%)" offset="0.710938"/><stop stop-opacity="1" stop-color="rgb(76.539612%, 45.619202%, 90.19928%)" offset="0.714844"/><stop stop-opacity="1" stop-color="rgb(76.879883%, 45.262146%, 90.19928%)" offset="0.71875"/><stop stop-opacity="1" stop-color="rgb(77.218628%, 44.903564%, 90.19928%)" offset="0.722656"/><stop stop-opacity="1" stop-color="rgb(77.558899%, 44.546509%, 90.19928%)" offset="0.726562"/><stop stop-opacity="1" stop-color="rgb(77.89917%, 44.187927%, 90.19928%)" offset="0.730469"/><stop stop-opacity="1" stop-color="rgb(78.239441%, 43.830872%, 90.19928%)" offset="0.734375"/><stop stop-opacity="1" stop-color="rgb(78.578186%, 43.47229%, 90.19928%)" offset="0.738281"/><stop stop-opacity="1" stop-color="rgb(78.918457%, 43.115234%, 90.19928%)" offset="0.742188"/><stop stop-opacity="1" stop-color="rgb(79.258728%, 42.756653%, 90.19928%)" offset="0.746094"/><stop stop-opacity="1" stop-color="rgb(79.598999%, 42.399597%, 90.19928%)" offset="0.75"/><stop stop-opacity="1" stop-color="rgb(79.598999%, 42.399597%, 90.19928%)" offset="0.780046"/><stop stop-opacity="1" stop-color="rgb(79.598999%, 42.399597%, 90.19928%)" offset="1"/></linearGradient></defs><rect x="-37.5" width="450" fill="#ffffff" y="-37.499999" height="449.999989" fill-opacity="1"/><rect x="-37.5" width="450" fill="#ffffff" y="-37.499999" height="449.999989" fill-opacity="1"/><rect x="-37.5" width="450" fill="#000000" y="-37.499999" height="449.999989" fill-opacity="1"/><g clip-path="url(#88badae4ee)"><g clip-path="url(#61cdc52a89)"><path fill="url(#25627bee07)" d="M 119.886719 102.539062 L 119.886719 206.039062 L 254.875 206.039062 L 254.875 102.539062 Z M 119.886719 102.539062 " fill-rule="nonzero"/></g></g><g fill="#fffdfd" fill-opacity="1"><g transform="translate(145.882716, 245.676209)"><g><path d="M 12.492188 -21.859375 C 10 -21.859375 7.480469 -20.449219 6.648438 -17.90625 C 6.496094 -17.402344 6.398438 -16.925781 6.398438 -16.445312 C 6.398438 -14.253906 7.90625 -12.59375 9.34375 -10.828125 C 10.527344 -9.394531 11.636719 -8.210938 11.636719 -6.699219 C 11.636719 -4.660156 9.847656 -3.425781 8.210938 -3.425781 C 6.398438 -3.449219 4.960938 -4.507812 4.988281 -6.296875 C 5.011719 -6.421875 5.011719 -6.546875 5.011719 -6.648438 C 5.011719 -8.085938 4.054688 -8.738281 3.074219 -8.738281 C 2.066406 -8.738281 1.03125 -8.007812 1.03125 -6.597656 C 0.90625 -2.59375 4.433594 0 8.234375 0 C 12.265625 0 15.917969 -3.171875 15.917969 -7.050781 C 15.917969 -9.671875 14.179688 -11.6875 12.644531 -13.398438 L 12.339844 -13.726562 C 11.382812 -14.757812 10.628906 -15.890625 10.628906 -16.824219 C 10.628906 -17.933594 11.914062 -18.410156 12.492188 -18.386719 C 13.273438 -18.335938 13.828125 -17.78125 14.253906 -16.925781 C 14.582031 -16.144531 15.238281 -15.789062 15.917969 -15.789062 C 16.824219 -15.789062 17.730469 -16.472656 17.730469 -17.628906 C 17.730469 -17.882812 17.703125 -18.109375 17.628906 -18.386719 C 17.050781 -20.347656 15.0625 -21.859375 12.492188 -21.859375 Z M 12.492188 -21.859375 "/></g></g></g><g fill="#fffdfd" fill-opacity="1"><g transform="translate(163.511385, 245.676209)"><g><path d="M 17.703125 -21.355469 L 5.492188 -21.355469 C 4.054688 -21.304688 3.449219 -20.5 3.449219 -19.695312 C 3.449219 -18.9375 4.003906 -18.207031 4.910156 -18.207031 L 8.816406 -18.207031 L 3.300781 -2.34375 C 3.199219 -2.089844 3.171875 -1.839844 3.171875 -1.636719 C 3.171875 -0.578125 4.105469 0 5.0625 0 C 5.917969 0 6.773438 -0.453125 7.101562 -1.410156 L 12.96875 -18.207031 L 17.074219 -18.207031 C 18.484375 -18.207031 19.089844 -19.066406 19.089844 -19.871094 C 19.089844 -20.625 18.5625 -21.355469 17.703125 -21.355469 Z M 17.703125 -21.355469 "/></g></g></g><g fill="#fffdfd" fill-opacity="1"><g transform="translate(179.075003, 245.676209)"><g><path d="M 9.066406 -6.472656 C 8.4375 -4.734375 6.851562 -3.273438 5.441406 -3.273438 C 4.632812 -3.273438 4.105469 -3.851562 4.105469 -4.632812 C 4.105469 -4.859375 4.15625 -5.164062 4.257812 -5.464844 L 9.117188 -19.015625 C 9.242188 -19.390625 9.292969 -19.71875 9.292969 -20.046875 C 9.292969 -21.207031 8.460938 -21.859375 7.554688 -21.859375 C 6.675781 -21.859375 5.765625 -21.230469 5.3125 -19.945312 L 0.300781 -6.042969 C 0.0742188 -5.414062 -0.0234375 -4.808594 -0.0234375 -4.230469 C -0.0234375 -1.710938 1.964844 0 4.484375 0 C 6.269531 0 8.007812 -1.058594 9.167969 -2.191406 C 9.972656 -0.78125 11.585938 0 13.421875 0 C 17.203125 0 19.667969 -3.222656 21.207031 -7.78125 C 21.28125 -7.984375 21.304688 -8.160156 21.304688 -8.335938 C 21.304688 -9.167969 20.625 -9.644531 19.871094 -9.644531 C 19.191406 -9.644531 18.460938 -9.242188 18.160156 -8.386719 C 16.976562 -5.136719 15.363281 -3.171875 13.777344 -3.171875 C 13.070312 -3.171875 12.644531 -3.578125 12.644531 -4.207031 C 12.644531 -4.433594 12.667969 -4.683594 12.769531 -4.960938 L 17.832031 -19.015625 C 17.957031 -19.390625 18.007812 -19.71875 18.007812 -20.023438 C 18.007812 -21.207031 17.152344 -21.859375 16.195312 -21.859375 C 15.289062 -21.859375 14.355469 -21.230469 13.902344 -19.945312 Z M 9.066406 -6.472656 "/></g></g></g><g fill="#fffdfd" fill-opacity="1"><g transform="translate(196.527385, 245.676209)"><g><path d="M 17.023438 -7.429688 C 16.519531 -5.867188 15.386719 -4.835938 14.054688 -4.835938 C 13.875 -4.835938 13.699219 -4.859375 13.523438 -4.886719 L 17.023438 -15.238281 C 17.203125 -15.765625 17.328125 -16.421875 17.328125 -16.925781 C 17.328125 -20.121094 14.582031 -21.859375 11.9375 -21.859375 C 11.03125 -21.859375 10.226562 -21.558594 9.394531 -20.980469 C 9.292969 -21.40625 8.410156 -21.910156 7.480469 -21.910156 C 6.648438 -21.910156 5.792969 -21.507812 5.390625 -20.324219 L -0.90625 -2.34375 C -1.03125 -2.015625 -1.082031 -1.738281 -1.082031 -1.460938 C -1.082031 -0.226562 0 0.554688 1.109375 0.554688 C 1.914062 0.554688 2.746094 0.125 3.171875 -0.804688 C 4.128906 0.101562 5.691406 0.328125 6.371094 0.328125 C 8.285156 0.328125 10.351562 -0.429688 11.835938 -2.015625 C 12.417969 -1.789062 13.046875 -1.664062 13.800781 -1.664062 C 16.773438 -1.664062 19.242188 -3.703125 20.046875 -6.773438 C 20.097656 -6.925781 20.097656 -7.078125 20.097656 -7.226562 C 20.097656 -8.109375 19.367188 -8.5625 18.613281 -8.5625 C 17.933594 -8.5625 17.25 -8.210938 17.023438 -7.429688 Z M 5.441406 -8.410156 L 7.90625 -15.4375 C 8.765625 -17.628906 10.046875 -18.207031 11.207031 -18.207031 C 12.214844 -18.207031 13.019531 -17.503906 13.019531 -16.394531 C 13.019531 -16.09375 12.945312 -15.765625 12.84375 -15.414062 L 10.097656 -7.304688 C 9.167969 -7.984375 8.085938 -8.511719 6.523438 -8.511719 C 6.144531 -8.511719 5.765625 -8.488281 5.441406 -8.410156 Z M 6.246094 -2.847656 C 5.3125 -2.847656 4.785156 -3.300781 4.785156 -3.878906 C 4.785156 -4.683594 5.617188 -5.339844 6.648438 -5.339844 C 7.53125 -5.339844 8.234375 -4.859375 8.890625 -4.257812 C 8.183594 -3.324219 7.128906 -2.847656 6.246094 -2.847656 Z M 6.246094 -2.847656 "/></g></g></g><g fill="#fffdfd" fill-opacity="1"><g transform="translate(213.173902, 245.676209)"><g><path d="M 4.535156 -5.339844 L 9.496094 -19.015625 C 9.621094 -19.367188 9.671875 -19.695312 9.671875 -19.996094 C 9.671875 -21.207031 8.789062 -21.859375 7.808594 -21.859375 C 6.875 -21.859375 5.945312 -21.230469 5.492188 -19.945312 L 0.527344 -5.917969 C 0.25 -5.164062 0.152344 -4.507812 0.152344 -3.878906 C 0.152344 -1.257812 2.191406 0.125 4.609375 0.125 L 4.734375 0.125 C 1.585938 0.957031 -0.933594 2.066406 -0.933594 5.035156 C -0.933594 7.203125 0.832031 9.089844 3.804688 9.089844 C 6.269531 9.089844 8.613281 7.757812 9.671875 4.835938 C 10.023438 3.777344 10.425781 2.667969 10.804688 1.636719 C 14.429688 0.503906 18.109375 -1.460938 19.847656 -6.75 C 19.921875 -6.976562 19.945312 -7.175781 19.945312 -7.355469 C 19.945312 -8.183594 19.265625 -8.6875 18.535156 -8.6875 C 17.855469 -8.6875 17.125 -8.261719 16.773438 -7.277344 C 15.839844 -4.683594 14.152344 -3.171875 12.164062 -2.164062 L 18.183594 -19.015625 C 18.308594 -19.390625 18.359375 -19.71875 18.359375 -20.023438 C 18.359375 -21.207031 17.476562 -21.859375 16.519531 -21.859375 C 15.5625 -21.859375 14.632812 -21.230469 14.179688 -19.945312 L 9.496094 -6.699219 C 8.613281 -4.609375 6.875 -3.121094 5.363281 -3.121094 C 4.683594 -3.121094 4.304688 -3.578125 4.304688 -4.257812 C 4.304688 -4.558594 4.382812 -4.910156 4.535156 -5.339844 Z M 6.21875 2.796875 L 5.589844 4.507812 C 5.238281 5.441406 4.457031 5.917969 3.726562 5.917969 C 3.121094 5.917969 2.871094 5.566406 2.871094 5.113281 C 2.871094 3.777344 4.609375 3.199219 6.21875 2.796875 Z M 6.21875 2.796875 "/></g></g></g><g fill="#fffdfd" fill-opacity="1"><g transform="translate(150.535007, 268.021125)"><g><path d="M 7.511719 -5.953125 C 8.394531 -6.378906 8.820312 -7.191406 8.820312 -8.183594 C 8.820312 -10.101562 7.542969 -11.269531 5.109375 -11.269531 L 1.457031 -11.269531 L 1.457031 0 L 6.101562 0 C 8.480469 0 9.632812 -1.253906 9.632812 -3.160156 C 9.632812 -4.765625 8.78125 -5.601562 7.511719 -5.953125 Z M 5.132812 -9.328125 C 6.179688 -9.328125 6.667969 -8.78125 6.667969 -8.035156 C 6.667969 -7.269531 6.234375 -6.675781 5.234375 -6.675781 L 3.714844 -6.675781 L 3.714844 -9.328125 Z M 5.664062 -2.003906 L 3.714844 -2.003906 L 3.714844 -4.875 L 5.617188 -4.875 C 6.933594 -4.875 7.363281 -4.164062 7.363281 -3.417969 C 7.363281 -2.683594 6.925781 -2.003906 5.664062 -2.003906 Z M 5.664062 -2.003906 "/></g></g></g><g fill="#fffdfd" fill-opacity="1"><g transform="translate(161.589732, 268.021125)"><g><path d="M 5.632812 0.15625 C 8.113281 0.15625 10.054688 -1.109375 10.054688 -3.945312 L 10.054688 -11.269531 L 7.714844 -11.269531 L 7.714844 -4.265625 C 7.714844 -2.558594 6.792969 -1.910156 5.632812 -1.910156 C 4.476562 -1.910156 3.566406 -2.550781 3.566406 -4.265625 L 3.566406 -11.269531 L 1.226562 -11.269531 L 1.226562 -3.945312 C 1.226562 -1.109375 3.160156 0.15625 5.632812 0.15625 Z M 5.632812 0.15625 "/></g></g></g><g fill="#fffdfd" fill-opacity="1"><g transform="translate(173.666141, 268.021125)"><g><path d="M 1.457031 0 L 5.539062 0 C 9.132812 0 10.914062 -2.261719 10.914062 -5.640625 C 10.914062 -9.007812 9.132812 -11.269531 5.539062 -11.269531 L 1.457031 -11.269531 Z M 3.796875 -2.066406 L 3.796875 -9.210938 L 5.421875 -9.210938 C 7.496094 -9.210938 8.449219 -7.917969 8.449219 -5.640625 C 8.449219 -3.363281 7.496094 -2.066406 5.421875 -2.066406 Z M 3.796875 -2.066406 "/></g></g></g><g fill="#fffdfd" fill-opacity="1"><g transform="translate(186.109115, 268.021125)"><g><path d="M 1.457031 0 L 5.539062 0 C 9.132812 0 10.914062 -2.261719 10.914062 -5.640625 C 10.914062 -9.007812 9.132812 -11.269531 5.539062 -11.269531 L 1.457031 -11.269531 Z M 3.796875 -2.066406 L 3.796875 -9.210938 L 5.421875 -9.210938 C 7.496094 -9.210938 8.449219 -7.917969 8.449219 -5.640625 C 8.449219 -3.363281 7.496094 -2.066406 5.421875 -2.066406 Z M 3.796875 -2.066406 "/></g></g></g><g fill="#fffdfd" fill-opacity="1"><g transform="translate(198.552089, 268.021125)"><g><path d="M 1.457031 0 L 3.796875 0 L 3.796875 -11.269531 L 1.457031 -11.269531 Z M 1.457031 0 "/></g></g></g><g fill="#fffdfd" fill-opacity="1"><g transform="translate(204.599759, 268.021125)"><g><path d="M 7.996094 -9.210938 L 7.996094 -11.269531 L 1.457031 -11.269531 L 1.457031 0 L 7.996094 0 L 7.996094 -2.066406 L 3.8125 -2.066406 L 3.8125 -4.617188 L 7.519531 -4.617188 L 7.519531 -6.652344 L 3.8125 -6.652344 L 3.8125 -9.210938 Z M 7.996094 -9.210938 "/></g></g></g><g fill="#fffdfd" fill-opacity="1"><g transform="translate(214.344226, 268.021125)"><g><path d="M 5.210938 0.15625 C 7.667969 0.15625 9.414062 -1.070312 9.414062 -3.214844 C 9.414062 -5.5 7.410156 -6.148438 5.703125 -6.660156 C 4.421875 -7.042969 3.316406 -7.308594 3.316406 -8.253906 C 3.316406 -9.117188 4.117188 -9.515625 5.0625 -9.515625 C 6.125 -9.515625 6.878906 -9.023438 7.230469 -7.941406 L 9.351562 -8.464844 C 8.898438 -10.625 6.902344 -11.425781 4.921875 -11.425781 C 2.660156 -11.425781 0.945312 -10.242188 0.945312 -8.167969 C 0.945312 -6.0625 2.714844 -5.460938 4.367188 -4.945312 C 5.742188 -4.523438 6.988281 -4.195312 6.996094 -3.089844 C 7.003906 -2.175781 6.246094 -1.753906 5.25 -1.753906 C 4.070312 -1.753906 3.199219 -2.355469 2.871094 -3.652344 L 0.554688 -3.121094 C 0.898438 -1.007812 2.785156 0.15625 5.210938 0.15625 Z M 5.210938 0.15625 "/></g></g></g></svg>